<svg width="220" height="60" viewBox="0 0 220 60" fill="none" xmlns="http://www.w3.org/2000/svg" role="img" aria-label="Findly logo">
  <rect x="4" y="8" width="44" height="44" rx="14" fill="#195F4A"/>
  <path d="M18 39V21H34V26H24V29.5H33V34.5H24V39H18Z" fill="#F3FAF6"/>
  <path d="M68.112 41V20.92H81.616V24.888H72.896V29.336H80.944V33.24H72.896V41H68.112ZM84.0735 41V24.568H88.6655V41H84.0735ZM86.4015 22.56C85.6549 22.56 85.0309 22.3173 84.5295 21.832C84.0442 21.3467 83.8015 20.7547 83.8015 20.056C83.8015 19.3573 84.0442 18.7653 84.5295 18.28C85.0309 17.7947 85.6549 17.552 86.4015 17.552C87.1482 17.552 87.7642 17.7947 88.2495 18.28C88.7509 18.7653 89.0015 19.3573 89.0015 20.056C89.0015 20.7547 88.7509 21.3467 88.2495 21.832C87.7642 22.3173 87.1482 22.56 86.4015 22.56ZM92.4634 41V24.568H97.0554V26.992C97.5887 26.0853 98.2874 25.4053 99.1514 24.952C100.015 24.4827 100.975 24.248 102.031 24.248C103.903 24.248 105.335 24.8267 106.327 25.984C107.319 27.1413 107.815 28.776 107.815 30.888V41H103.223V31.72C103.223 30.6587 102.975 29.832 102.479 29.24C101.983 28.648 101.263 28.352 100.319 28.352C99.3274 28.352 98.5354 28.664 97.9434 29.288C97.3674 29.912 97.0794 30.7547 97.0794 31.816V41H92.4634ZM118.726 41.32C117.174 41.32 115.782 40.9627 114.55 40.248C113.334 39.5173 112.374 38.504 111.67 37.208C110.966 35.912 110.614 34.4187 110.614 32.728C110.614 31.0373 110.966 29.544 111.67 28.248C112.374 26.952 113.334 25.9467 114.55 25.232C115.782 24.5013 117.174 24.136 118.726 24.136C119.942 24.136 121.022 24.3787 121.966 24.864C122.926 25.3333 123.686 25.9733 124.246 26.784V18.2H128.838V41H124.526L124.278 38.832C123.718 39.6427 122.958 40.2987 121.998 40.8C121.054 41.0693 119.942 41.32 118.726 41.32ZM119.63 37.216C120.99 37.216 122.102 36.7733 122.966 35.888C123.846 34.9867 124.286 33.9333 124.286 32.728C124.286 31.5227 123.846 30.4773 122.966 29.592C122.102 28.6907 120.99 28.24 119.63 28.24C118.286 28.24 117.174 28.6907 116.294 29.592C115.43 30.4773 114.998 31.5227 114.998 32.728C114.998 33.9333 115.43 34.9867 116.294 35.888C117.174 36.7733 118.286 37.216 119.63 37.216ZM139.827 41.32C138.099 41.32 136.587 40.9787 135.291 40.296C133.995 39.5973 132.995 38.608 132.291 37.328C131.603 36.032 131.259 34.5227 131.259 32.8C131.259 31.1093 131.603 29.616 132.291 28.32C132.995 27.024 133.971 26.0267 135.219 25.328C136.483 24.6133 137.915 24.256 139.515 24.256C141.035 24.256 142.379 24.5893 143.547 25.256C144.731 25.9227 145.651 26.8827 146.307 28.136C146.963 29.3733 147.291 30.864 147.291 32.608C147.291 32.8747 147.283 33.1493 147.267 33.432C147.267 33.7147 147.243 33.9813 147.195 34.232H135.803C136.011 35.256 136.491 36.048 137.243 36.608C138.011 37.152 138.907 37.424 139.931 37.424C140.699 37.424 141.379 37.272 141.971 36.968C142.579 36.648 143.043 36.2187 143.363 35.68H147.027C146.675 36.7253 146.115 37.664 145.347 38.496C144.579 39.328 143.651 39.984 142.563 40.464C141.491 40.928 140.245 41.32 139.827 41.32ZM135.875 31.12H142.987C142.875 30.224 142.491 29.5173 141.835 29C141.179 28.4667 140.371 28.2 139.411 28.2C138.499 28.2 137.723 28.4507 137.083 28.952C136.459 29.4373 136.055 30.16 135.875 31.12Z" fill="#1D2A24"/>
</svg>
